<?xml version="1.0" encoding="UTF-8" standalone="no"?>
<!DOCTYPE svg PUBLIC "-//W3C//DTD SVG 1.1//EN" "http://www.w3.org/Graphics/SVG/1.1/DTD/svg11.dtd">
<svg width="100%" height="100%" viewBox="0 0 2506 762" version="1.1" xmlns="http://www.w3.org/2000/svg" xmlns:xlink="http://www.w3.org/1999/xlink" xml:space="preserve" xmlns:serif="http://www.serif.com/" style="fill-rule:evenodd;clip-rule:evenodd;stroke-linejoin:round;stroke-miterlimit:2;">
    <g transform="matrix(3.215617,0,0,3.215617,-505.503378,-826.060354)">
        <g>
            <g transform="matrix(1,0,0,1,-6,24)">
                <path d="M199,350C199,350 197.211,370.017 222,371C222,371 214.963,360.85 207,357C207,357 216.87,362.847 221,363C221,363 219.458,351.531 199,350Z" style="fill:rgb(0,135,126);"/>
            </g>
            <g transform="matrix(1,0,0,1,-6,24)">
                <path d="M200.343,358.209C202.512,363.86 208.044,370.446 222,371C222,371 216.914,375.869 212,374C205.134,371.388 201.877,364.081 200.343,358.209Z" style="fill:rgb(109,146,153);"/>
            </g>
            <path d="M201.991,345.918C201.994,345.945 201.997,345.973 202,346C202.767,353.18 206.859,363.781 187,380C186.963,380.03 186.928,380.062 186.893,380.092C190.336,376.005 194.41,370.946 197.477,366.463C201.544,360.519 201.924,354.336 202,348C202.008,347.303 202.006,346.61 201.991,345.918Z" style="fill:rgb(109,146,153);"/>
            <path d="M187,417C187,417 186.957,423.175 198,428C204.44,430.814 210,434 210,434L210,436L199,431C186.414,425.899 187,417 187,417Z" style="fill:rgb(109,146,153);"/>
            <g transform="matrix(1.229446,0,0,1.195385,-57.395822,-63.337158)">
                <path d="M224,447C224,447 200.048,424.715 184.775,411.173C197.983,419.804 215.575,430.283 224,447Z" style="fill:rgb(109,146,153);"/>
            </g>
            <g transform="matrix(1,0,0,1,-6,24)">
                <path d="M206,236C206,236 168.713,268.93 203,296C203,296 208.006,273.856 206,264C206,264 209.284,283.567 208,298C208,298 239.361,277.524 206,236Z" style="fill:rgb(3,158,178);"/>
            </g>
            <g transform="matrix(1,0,0,1,-6,24)">
                <path d="M203.181,238.793C195.181,247.295 174.686,273.645 203,296C203,296 206.312,279.689 206.469,269.209C206.547,270.518 206.628,273.047 206.702,274.737C206.325,285.443 203.765,298.903 203.765,298.903C171.842,275.347 194.542,247.559 203.181,238.793Z" style="fill:rgb(2,132,143);"/>
            </g>
            <g transform="matrix(1,0,0,1,-6,24)">
                <path d="M206.053,236.066L206.13,236C243.552,279.533 206.373,300 206.373,300C207.177,291.56 207.008,281.757 206.702,274.737C206.454,269.043 206.737,275.768 206.365,266.523C206.36,266.399 206.344,266.278 206.332,266.157C207.132,271.633 209.027,286.458 208,298C208,298 239.328,277.545 206.053,236.066Z" style="fill:rgb(2,132,143);"/>
            </g>
            <g transform="matrix(1,0,0,1,-6,24)">
                <path d="M200,331C200,331 173.519,330.716 169,299C169,299 202.146,295.802 202,322C202,322 196.309,323.618 183,310C183,310 192.841,319.708 200,331Z" style="fill:rgb(47,159,79);"/>
            </g>
            <path d="M184.486,342.209C181.517,338.694 178.986,336.028 177.771,334.78C186.746,343.768 192.115,345.663 194.51,345.996C191.181,345.72 187.248,343.803 184.486,342.209Z" style="fill:rgb(35,118,50);"/>
            <g transform="matrix(1,0,0,1,-6,24)">
                <path d="M224,447C224,447 230.193,436.978 196,412C192.084,409.139 161.767,390.736 186,364C186,364 196.989,351.945 203.477,342.463C207.544,336.519 207.924,330.336 208,324C208.087,316.756 206.969,309.973 204,299C204,299 208.027,322.21 203,332C199.833,338.167 177.996,353.717 173,360C168.626,365.501 152.06,389.288 183,410C196.848,419.27 210.099,425.166 224,447Z" style="fill:rgb(134,166,83);"/>
            </g>
            <g transform="matrix(1,0,0,1,-6,24)">
                <path d="M188,447C188,447 179.221,437.352 220,407C222.737,404.963 254.833,383.833 227,357C222.39,352.556 218.224,347.294 215,342C215,342 225.861,351.593 232,356C238.5,360.667 248.659,366.149 248,382C248,382 249.864,394.397 224,413C212.031,421.609 194.901,430.724 188,447Z" style="fill:rgb(0,49,92);"/>
            </g>
            <g transform="matrix(1,0,0,1,-6,24)">
                <path d="M214,328C214,328 207.233,300.397 245,299C245,299 245.112,340.724 216,330C216,330 229.715,315.712 231,312C231,312 221.714,322.965 214,328Z" style="fill:rgb(128,168,78);"/>
            </g>
            <g transform="matrix(1,0,0,1,-8,22)">
                <path d="M208,438C206.333,438 203,441.333 203,446C203,450.603 206.333,452 208,452C209.667,452 213,450.603 213,446C213,441.333 209.667,438 208,438Z" style="fill:rgb(154,168,117);"/>
            </g>
            <g transform="matrix(1,0,0,1,-6,24)">
                <path d="M201.444,446.626C203.711,447.397 206.794,447.754 210.577,446.572C209.626,449.146 207.303,450 206,450C204.706,450 202.407,449.158 201.444,446.626Z" style="fill:rgb(117,129,84);"/>
            </g>
            <g transform="matrix(1,0,0,1,-6,24)">
                <path d="M191,365C191,365 187.126,380.889 206,387C220.819,391.799 223,402 223,402C223,402 223.455,396.638 223,393C222.5,389 223.838,382.97 208,378C194.29,373.698 196.021,370.564 191,365Z" style="fill:rgb(0,49,92);"/>
            </g>
            <g transform="matrix(1,0,0,1,-6,24)">
                <path d="M193,393C193,393 192.957,399.175 204,404C210.44,406.814 216,410 216,410C216,410 216.779,404.947 205,400C201.056,398.344 197.743,396.525 193,393Z" style="fill:rgb(0,49,92);"/>
            </g>
            <g transform="matrix(1,0,0,1,-6,24)">
                <path d="M207.563,331.407C209.108,331.423 211.864,331.082 215,329L206.683,335.654C207.09,334.248 207.37,332.833 207.563,331.407Z" style="fill:rgb(137,153,110);"/>
            </g>
            <g transform="matrix(1,0,0,1,-6,24)">
                <path d="M204.007,329.515C202.969,328.105 201.188,326.052 199,325C199,325 202.544,326.241 204.63,327.128C204.454,327.961 204.247,328.76 204.007,329.515Z" style="fill:rgb(137,153,110);"/>
            </g>
            <g transform="matrix(1,0,0,1,-6,24)">
                <path d="M190.679,368.922C190.815,374.033 193.067,382.812 206,387C220.819,391.799 223,402 223,402C223,402 219.2,396.404 203,390.143C190.15,385.176 190.135,373.527 190.679,368.922Z" style="fill:rgb(109,146,153);"/>
            </g>
            <g transform="matrix(1,0,0,1,-6,24)">
                <path d="M238.086,376.22C238.05,376.165 238.021,376.092 238,376C235.5,365 216.037,353.988 215,342C218.224,347.294 222.39,352.556 227,357C234.109,363.853 237.308,370.334 238.086,376.22Z" style="fill:rgb(109,146,153);"/>
            </g>
            <path d="M223.201,338.955C219.147,344.471 210,354 210,354C239.112,364.724 239,323 239,323C239,323 240.398,344.137 228,354C222.144,358.659 209.035,355.449 209,354C208.987,353.455 223.201,338.955 223.201,338.955Z" style="fill:rgb(111,139,75);"/>
            <g transform="matrix(1,0,0,1,-6,24)">
                <path d="M247.822,376.948C248.774,382.522 249.393,393.23 241.606,402.967C232.963,413.773 216.704,420.389 208,428C197.894,436.837 195.935,436.901 188,447C194.901,430.724 212.031,421.609 224,413C249.864,394.397 248,382 248,382C248.075,380.185 248.009,378.505 247.822,376.948Z" style="fill:rgb(109,146,153);"/>
            </g>
        </g>
        <g>
            <g transform="matrix(0.877189,0,0,0.877189,27.309576,50.198529)">
                <g>
                    <g transform="matrix(201.030675,0,0,201.030675,306,434)">
                        <path d="M0.583,-0C0.583,-0.382 0.586,-0.615 0.593,-0.7L0.5,-0.683C0.513,-0.667 0.52,-0.639 0.521,-0.622C0.522,-0.613 0.522,-0.6 0.522,-0.582C0.522,-0.535 0.522,-0.477 0.521,-0.409L0.521,-0.276L0.153,-0.7L0.06,-0.673C0.075,-0.655 0.082,-0.63 0.082,-0.598C0.081,-0.264 0.077,-0.065 0.072,-0L0.165,-0C0.15,-0.017 0.143,-0.056 0.143,-0.115C0.143,-0.302 0.144,-0.437 0.146,-0.52L0.583,-0Z" style="fill:rgb(5,66,115);fill-rule:nonzero;"/>
                    </g>
                    <g transform="matrix(201.030675,0,0,201.030675,439.283337,434)">
                        <path d="M0.433,-0.137C0.424,-0.078 0.361,-0.052 0.292,-0.052C0.203,-0.052 0.161,-0.1 0.16,-0.243L0.449,-0.243L0.449,-0.275C0.449,-0.4 0.385,-0.48 0.253,-0.48C0.118,-0.48 0.03,-0.394 0.03,-0.239C0.03,-0.079 0.124,0.01 0.26,0.01C0.375,0.01 0.433,-0.057 0.433,-0.137ZM0.245,-0.417C0.293,-0.417 0.314,-0.384 0.318,-0.304L0.162,-0.304C0.171,-0.379 0.198,-0.417 0.245,-0.417Z" style="fill:rgb(5,66,115);fill-rule:nonzero;"/>
                    </g>
                    <g transform="matrix(201.030675,0,0,201.030675,530.551264,434)">
                        <path d="M0.015,-0.47C0.03,-0.461 0.045,-0.437 0.061,-0.4C0.092,-0.331 0.12,-0.264 0.145,-0.201C0.171,-0.138 0.191,-0.089 0.205,-0.052L0.229,0.01L0.377,-0.269C0.436,-0.165 0.484,-0.073 0.505,-0.03L0.527,0.01L0.703,-0.422C0.71,-0.438 0.719,-0.454 0.731,-0.47L0.63,-0.47C0.636,-0.449 0.635,-0.426 0.628,-0.4C0.616,-0.357 0.589,-0.285 0.547,-0.184C0.492,-0.289 0.455,-0.358 0.438,-0.393C0.421,-0.428 0.411,-0.454 0.408,-0.47L0.405,-0.463C0.398,-0.446 0.38,-0.412 0.337,-0.332C0.316,-0.293 0.295,-0.251 0.273,-0.207C0.212,-0.36 0.181,-0.448 0.179,-0.47L0.015,-0.47Z" style="fill:rgb(5,66,115);fill-rule:nonzero;"/>
                    </g>
                </g>
            </g>
            <g>
                <g transform="matrix(0.883418,0,0,0.883418,390.32846,46.412267)">
                    <path d="M403.902,416.912C400.484,419.928 394.453,421.335 385.809,421.335L348.216,421.335C348.216,352.382 348.82,309.763 350.227,293.279L318.062,295.892C321.077,299.309 322.485,306.144 322.485,316.397C322.283,380.526 321.68,419.727 320.474,434L403.902,434L403.902,416.912Z" style="fill:rgb(5,131,93);fill-rule:nonzero;"/>
                </g>
                <g transform="matrix(0.883418,0,0,0.883418,390.32846,46.412267)">
                    <path d="M451.948,434C449.134,432.191 447.727,428.371 447.727,422.742L447.526,411.686C447.124,386.557 447.928,362.634 449.938,339.516L418.778,343.737C421.593,347.557 423,351.979 423,356.603L423,362.031C423.402,389.371 422.598,413.294 420.789,434L451.948,434Z" style="fill:rgb(4,66,115);fill-rule:nonzero;"/>
                </g>
                <path d="M760.817,318.819C760.817,311.538 767.211,305.5 774.847,305.5C782.129,305.5 788.344,311.538 788.344,318.819C788.344,326.633 782.129,333.027 774.847,333.027C767.211,333.027 760.817,326.633 760.817,318.819Z" style="fill:rgb(193,170,88);"/>
                <g transform="matrix(0.883418,0,0,0.883418,390.32846,46.412267)">
                    <path d="M476.474,351.778L476.474,384.546C476.474,400.629 475.871,417.113 474.665,434L505.824,434C503.412,430.784 502.005,425.758 501.804,419.124C501.603,416.309 501.603,405.253 501.603,386.155L501.603,351.778L526.933,351.778L528.541,339.516L501.603,339.516L501.603,328.459C501.603,310.567 504.417,303.933 514.67,303.933C523.515,303.933 528.742,308.155 529.345,314.387C529.144,300.516 523.716,291.268 506.629,291.268C486.526,291.268 476.474,303.732 476.474,328.459L476.474,339.516L465.015,339.516L465.015,351.778L476.474,351.778Z" style="fill:rgb(5,131,93);fill-rule:nonzero;"/>
                </g>
                <g transform="matrix(0.883418,0,0,0.883418,390.32846,46.412267)">
                    <path d="M612.773,406.459C610.964,418.32 598.299,423.546 584.427,423.546C566.536,423.546 558.092,413.897 557.891,385.15L615.989,385.15L615.989,378.717C615.989,353.588 603.123,337.505 576.587,337.505C549.448,337.505 531.757,354.794 531.757,385.954C531.757,418.119 550.654,436.01 577.995,436.01C601.113,436.01 612.773,422.541 612.773,406.459ZM574.979,350.17C584.629,350.17 588.85,356.804 589.654,372.887L558.293,372.887C560.103,357.809 565.531,350.17 574.979,350.17Z" style="fill:rgb(5,131,93);fill-rule:nonzero;"/>
                </g>
            </g>
        </g>
        <g>
            <path d="M302,485L790,482C790,482 514.263,494.514 302,485Z" style="fill:rgb(153,173,112);"/>
            <path d="M302.983,485.044C509.54,494.227 775.598,482.64 789.437,482.025L791,482C804.681,493.973 336.026,493.745 318,493C300.795,492.289 302.768,485.648 302.983,485.044Z" style="fill:rgb(126,137,121);"/>
        </g>
    </g>
</svg>
